<svg width="37" height="83" viewBox="0 0 37 83" fill="none" xmlns="http://www.w3.org/2000/svg">
<g clip-path="url(#clip0_856_73)">
<g clip-path="url(#clip1_856_73)">
<mask id="mask0_856_73" style="mask-type:luminance" maskUnits="userSpaceOnUse" x="0" y="0" width="37" height="83">
<path d="M36.2968 0H0.00292969V82.75H36.2968V0Z" fill="white"/>
</mask>
<g mask="url(#mask0_856_73)">
<g opacity="0.17">
<g filter="url(#filter0_i_856_73)">
<path d="M10.7435 30.6096C10.7435 30.6096 13.7782 26.2574 11.8155 20.2133C9.84608 14.1729 5.25968 11.8788 5.25968 11.8788C5.25968 11.8788 1.82762 17.0655 3.74574 22.9534C5.66042 28.8452 10.7435 30.6096 10.7435 30.6096Z" fill="white"/>
<path d="M15.2361 33.7005C15.2361 33.7005 20.5416 33.2279 23.5799 27.9497C26.618 22.6754 24.2957 16.7761 24.2957 16.7761C24.2957 16.7761 19.3703 17.8888 16.2498 23.3042C13.133 28.7157 15.2361 33.7005 15.2361 33.7005Z" fill="white"/>
<path d="M15.7731 40.6742C13.3173 46.4936 15.9856 51.1353 15.9856 51.1353C15.9856 51.1353 21.1952 49.8929 23.5861 44.226C25.9735 38.5515 22.9798 33.0409 22.9798 33.0409C22.9798 33.0409 18.229 34.8549 15.7731 40.6742Z" fill="white"/>
<path d="M27.7644 45.3616C27.7644 45.3616 23.1849 47.6711 21.2325 53.7151C19.2802 59.7709 22.3252 64.1077 22.3252 64.1077C22.3252 64.1077 27.4012 62.3279 29.3057 56.4324C31.2068 50.5369 27.7644 45.3616 27.7644 45.3616Z" fill="white"/>
<path d="M31.5813 77.191C31.5813 77.191 35.9862 73.8565 36.2841 67.6027C36.5786 61.345 31.9375 57.4961 31.9375 57.4961C31.9375 57.4961 28.1493 61.1736 27.8444 67.5913C27.5431 74.0051 31.5813 77.191 31.5813 77.191Z" fill="white"/>
<path d="M14.5598 18.9633C14.5598 18.9633 19.2557 17.2178 20.6328 10.9794C22.0131 4.74082 19.3448 0 19.3448 0C19.3448 0 13.9056 2.1951 12.5595 8.28118C11.2168 14.3635 14.5598 18.9633 14.5598 18.9633Z" fill="white"/>
<path d="M10.7396 43.8756C10.7396 43.8756 12.483 38.7194 9.00644 33.5938C5.52301 28.4642 0.535901 27.7744 0.535901 27.7744C0.535901 27.7744 -1.36851 33.8566 2.02245 38.8567C5.4134 43.8604 10.7396 43.8756 10.7396 43.8756Z" fill="white"/>
<path d="M14.6311 57.4809C14.6311 57.4809 15.299 52.0236 10.8874 47.885C6.46882 43.7425 1.46802 44.3065 1.46802 44.3065C1.46802 44.3065 0.824073 50.7089 5.12613 54.7447C9.43504 58.7766 14.6311 57.4809 14.6311 57.4809Z" fill="white"/>
<path d="M20.5564 68.7303C20.5564 68.7303 19.7171 63.3036 14.3806 60.8493C9.04075 58.3874 4.43042 60.6092 4.43042 60.6092C4.43042 60.6092 5.56075 66.9278 10.7603 69.3287C15.9597 71.7181 20.5564 68.7303 20.5564 68.7303Z" fill="white"/>
<path d="M23.1454 73.4028C17.5829 71.6727 13.2397 74.4889 13.2397 74.4889C13.2397 74.4889 15.0379 80.6094 20.4565 82.2976C25.8822 83.9859 30.1226 80.4075 30.1226 80.4075C30.1226 80.4075 28.7079 75.1291 23.1454 73.4028Z" fill="white"/>
</g>
</g>
</g>
</g>
</g>
<defs>
<filter id="filter0_i_856_73" x="0.00292969" y="-0.984861" width="36.2947" height="83.7351" filterUnits="userSpaceOnUse" color-interpolation-filters="sRGB">
<feFlood flood-opacity="0" result="BackgroundImageFix"/>
<feBlend mode="normal" in="SourceGraphic" in2="BackgroundImageFix" result="shape"/>
<feColorMatrix in="SourceAlpha" type="matrix" values="0 0 0 0 0 0 0 0 0 0 0 0 0 0 0 0 0 0 127 0" result="hardAlpha"/>
<feOffset dy="-0.984861"/>
<feGaussianBlur stdDeviation="0.492432"/>
<feComposite in2="hardAlpha" operator="arithmetic" k2="-1" k3="1"/>
<feColorMatrix type="matrix" values="0 0 0 0 1 0 0 0 0 1 0 0 0 0 1 0 0 0 0.25 0"/>
<feBlend mode="normal" in2="shape" result="effect1_innerShadow_856_73"/>
</filter>
<clipPath id="clip0_856_73">
<rect width="37" height="82.75" fill="white"/>
</clipPath>
<clipPath id="clip1_856_73">
<rect width="36.9941" height="82.75" fill="white" transform="translate(0.00292969)"/>
</clipPath>
</defs>
</svg>
