<svg width="37" height="83" viewBox="0 0 37 83" fill="none" xmlns="http://www.w3.org/2000/svg">
<g clip-path="url(#clip0_856_90)">
<g clip-path="url(#clip1_856_90)">
<g clip-path="url(#clip2_856_90)">
<mask id="mask0_856_90" style="mask-type:luminance" maskUnits="userSpaceOnUse" x="0" y="0" width="37" height="83">
<path d="M0.703213 0H36.9971V82.75H0.703213V0Z" fill="white"/>
</mask>
<g mask="url(#mask0_856_90)">
<g opacity="0.17">
<g filter="url(#filter0_i_856_90)">
<path d="M26.2563 30.6096C26.2563 30.6096 23.2216 26.2574 25.1842 20.2133C27.1537 14.1729 31.74 11.8788 31.74 11.8788C31.74 11.8788 35.1721 17.0655 33.254 22.9534C31.3393 28.8452 26.2563 30.6096 26.2563 30.6096Z" fill="white"/>
<path d="M21.7639 33.7005C21.7639 33.7005 16.4583 33.2279 13.42 27.9497C10.3819 22.6754 12.7042 16.7761 12.7042 16.7761C12.7042 16.7761 17.6297 17.8888 20.7501 23.3042C23.867 28.7157 21.7639 33.7005 21.7639 33.7005Z" fill="white"/>
<path d="M21.2266 40.6742C23.6824 46.4936 21.0141 51.1353 21.0141 51.1353C21.0141 51.1353 15.8045 49.8929 13.4136 44.226C11.0262 38.5515 14.0199 33.0409 14.0199 33.0409C14.0199 33.0409 18.7707 34.8549 21.2266 40.6742Z" fill="white"/>
<path d="M9.23542 45.3616C9.23542 45.3616 13.8149 47.6711 15.7673 53.7151C17.7196 59.7709 14.6746 64.1077 14.6746 64.1077C14.6746 64.1077 9.59851 62.3279 7.6941 56.4324C5.79303 50.5369 9.23542 45.3616 9.23542 45.3616Z" fill="white"/>
<path d="M5.4184 77.191C5.4184 77.191 1.0135 73.8565 0.715599 67.6027C0.421037 61.345 5.06215 57.4961 5.06215 57.4961C5.06215 57.4961 8.85036 61.1736 9.15522 67.5913C9.4566 74.0051 5.4184 77.191 5.4184 77.191Z" fill="white"/>
<path d="M22.44 18.9633C22.44 18.9633 17.7441 17.2178 16.367 10.9794C14.9867 4.74082 17.655 0 17.655 0C17.655 0 23.0942 2.1951 24.4403 8.28118C25.783 14.3635 22.44 18.9633 22.44 18.9633Z" fill="white"/>
<path d="M26.2599 43.8756C26.2599 43.8756 24.5165 38.7194 27.9931 33.5938C31.4764 28.4642 36.4635 27.7744 36.4635 27.7744C36.4635 27.7744 38.368 33.8566 34.9771 38.8567C31.5861 43.8604 26.2599 43.8756 26.2599 43.8756Z" fill="white"/>
<path d="M22.3686 57.4809C22.3686 57.4809 21.7007 52.0236 26.1123 47.885C30.5309 43.7425 35.5317 44.3065 35.5317 44.3065C35.5317 44.3065 36.1756 50.7089 31.8736 54.7447C27.5646 58.7766 22.3686 57.4809 22.3686 57.4809Z" fill="white"/>
<path d="M16.4434 68.7303C16.4434 68.7303 17.2826 63.3036 22.6191 60.8493C27.959 58.3874 32.5693 60.6092 32.5693 60.6092C32.5693 60.6092 31.439 66.9278 26.2395 69.3287C21.0401 71.7181 16.4434 68.7303 16.4434 68.7303Z" fill="white"/>
<path d="M13.8542 73.4028C19.4167 71.6727 23.7598 74.4889 23.7598 74.4889C23.7598 74.4889 21.9617 80.6094 16.5431 82.2976C11.1174 83.9859 6.87695 80.4075 6.87695 80.4075C6.87695 80.4075 8.29169 75.1291 13.8542 73.4028Z" fill="white"/>
</g>
</g>
</g>
</g>
</g>
</g>
<defs>
<filter id="filter0_i_856_90" x="0.702148" y="-0.984861" width="36.2944" height="83.7351" filterUnits="userSpaceOnUse" color-interpolation-filters="sRGB">
<feFlood flood-opacity="0" result="BackgroundImageFix"/>
<feBlend mode="normal" in="SourceGraphic" in2="BackgroundImageFix" result="shape"/>
<feColorMatrix in="SourceAlpha" type="matrix" values="0 0 0 0 0 0 0 0 0 0 0 0 0 0 0 0 0 0 127 0" result="hardAlpha"/>
<feOffset dy="-0.984861"/>
<feGaussianBlur stdDeviation="0.492432"/>
<feComposite in2="hardAlpha" operator="arithmetic" k2="-1" k3="1"/>
<feColorMatrix type="matrix" values="0 0 0 0 1 0 0 0 0 1 0 0 0 0 1 0 0 0 0.25 0"/>
<feBlend mode="normal" in2="shape" result="effect1_innerShadow_856_90"/>
</filter>
<clipPath id="clip0_856_90">
<rect width="37" height="82.75" fill="white"/>
</clipPath>
<clipPath id="clip1_856_90">
<rect width="37" height="82.75" fill="white"/>
</clipPath>
<clipPath id="clip2_856_90">
<rect width="36.9941" height="82.75" fill="white" transform="translate(0.00292969)"/>
</clipPath>
</defs>
</svg>
